<svg width="29" height="24" viewBox="0 0 29 24" fill="none" xmlns="http://www.w3.org/2000/svg">
<path d="M2.74823 4.78818H22.3107L20.7883 8.9415H7.54315C5.65093 8.94154 4.27164 10.7005 4.6828 12.5157L4.72772 12.6915L5.3244 14.7452L3.67889 14.5196L3.67108 14.5186L3.51483 14.4933C2.79731 14.3437 2.22068 13.8074 2.01874 13.1026L1.98065 12.9493L0.809753 7.15732C0.562158 5.93265 1.49879 4.78818 2.74823 4.78818Z" stroke="#111111" stroke-width="1.5"/>
<path d="M3.72748 20.3959H4.55365L4.96869 21.1127C5.09005 21.3226 5.15912 21.5666 5.15912 21.8285C5.15888 22.619 4.51809 23.2601 3.72748 23.2601C2.93695 23.26 2.29608 22.6189 2.29584 21.8285C2.29584 21.0378 2.93678 20.396 3.72748 20.3959ZM18.7099 20.3959L19.124 21.1127C19.2454 21.3227 19.3154 21.5665 19.3154 21.8285C19.3151 22.6189 18.6742 23.26 17.8837 23.2601C17.0931 23.2601 16.4523 22.619 16.4521 21.8285C16.4521 21.5666 16.5211 21.3226 16.6425 21.1127L17.0576 20.3959H18.7099ZM7.54291 11.5326H19.8388L18.1972 16.0082L18.0204 16.4886L8.13373 15.1312L7.21576 11.9681C7.15278 11.7503 7.31607 11.5328 7.54291 11.5326Z" stroke="#111111" stroke-width="1.5"/>
</svg>
